<svg width="24" height="24" viewBox="0 0 24 24" fill="none" xmlns="http://www.w3.org/2000/svg">
<path d="M19.0293 2.03906C20.1335 2.03933 21.029 2.93488 21.0293 4.03906V19.957C21.0293 21.0614 20.1336 21.9568 19.0293 21.957H4.97852C3.87395 21.957 2.97852 21.0616 2.97852 19.957V4.04004C2.97852 2.93547 3.87395 2.03906 4.97852 2.03906H19.0293ZM7.00684 18.9238H9.00684V16.9238H7.00684V18.9238ZM10.0039 18.9238H16.9883V16.9238H10.0039V18.9238ZM7.00684 15.001H9.00684V13.001H7.00684V15.001ZM10.0039 15.001H16.9883V13.001H10.0039V15.001ZM11.2344 6.92773C10.8653 6.92781 10.5864 7.0239 10.3984 7.21582C10.2118 7.40648 10.1191 7.67833 10.1191 8.03027V8.51562C10.1191 8.86625 10.2112 9.1356 10.3965 9.32227C10.5831 9.50885 10.8626 9.60148 11.2344 9.60156C11.605 9.60156 11.8846 9.50893 12.0713 9.32227C12.2579 9.1356 12.3506 8.86622 12.3506 8.51562V8.03027C12.3506 7.67827 12.2564 7.40649 12.0684 7.21582C11.8817 7.02406 11.6035 6.92773 11.2344 6.92773ZM17.5107 6.92969C17.2041 6.92969 16.9712 6.99159 16.8125 7.11426C16.6552 7.23692 16.5762 7.41452 16.5762 7.64648V7.67188C16.5762 7.82241 16.6055 7.94727 16.6641 8.0459C16.7227 8.14323 16.812 8.22471 16.9307 8.29004C17.0506 8.35533 17.2003 8.41447 17.3789 8.46777C17.4973 8.50238 17.5909 8.53578 17.6602 8.56641C17.7308 8.59574 17.7812 8.62806 17.8105 8.66406C17.8411 8.69867 17.8564 8.74395 17.8564 8.7998V8.81445C17.8563 8.89811 17.8232 8.96006 17.7568 9C17.6916 9.03864 17.5806 9.05759 17.4248 9.05762C17.2636 9.05762 17.1107 9.03736 16.9668 8.99609C16.823 8.95348 16.698 8.90766 16.5928 8.8584L16.6465 9.43359C16.7104 9.46022 16.7843 9.48642 16.8682 9.51172C16.9535 9.53572 17.0477 9.55565 17.1504 9.57031C17.2544 9.58631 17.3657 9.59375 17.4844 9.59375C17.8241 9.59375 18.0775 9.53017 18.2441 9.40234C18.4108 9.27305 18.4941 9.07949 18.4941 8.82227V8.79004C18.4941 8.63404 18.4649 8.50935 18.4062 8.41602C18.349 8.32147 18.2617 8.24515 18.1445 8.18652C18.0285 8.12652 17.8814 8.06958 17.7041 8.01758C17.5723 7.97897 17.4704 7.94345 17.3984 7.91016C17.3278 7.87682 17.278 7.84166 17.25 7.80566C17.2236 7.76976 17.21 7.72749 17.21 7.67969V7.67188C17.21 7.62528 17.2221 7.58567 17.2461 7.55371C17.27 7.52048 17.3117 7.49584 17.3701 7.47852C17.4301 7.46119 17.5123 7.45216 17.6162 7.45215C17.7641 7.45215 17.903 7.46928 18.0322 7.50391C18.1629 7.53724 18.2801 7.5786 18.3828 7.62793L18.3281 7.0918C18.2349 7.04787 18.1208 7.01048 17.9863 6.97852C17.8531 6.94653 17.6946 6.92971 17.5107 6.92969ZM5.61328 6.98438V9.54004H6.23535V8.65039H7.29785V8.12402H6.23535V7.50977H7.32715V6.98438H5.61328ZM7.97559 6.98438V9.54004H9.66699V9.01367H8.60156V6.98438H7.97559ZM12.8096 6.98438L13.2588 9.54004H14.1494L14.3672 8.00586L14.4375 7.55566H14.4688L14.5391 8.00586L14.7607 9.54004H15.6514L16.0947 6.98438H15.4668L15.2207 8.73828L15.1768 9.01758H15.1416L15.0967 8.73828L14.8369 7.04199H14.0713L13.8096 8.73828L13.7627 9.01758H13.7295L13.6875 8.73828L13.4453 6.98438H12.8096ZM11.2344 7.44238C11.3956 7.44238 11.5161 7.49002 11.5947 7.58594C11.6734 7.68194 11.7129 7.81938 11.7129 7.99805V8.5459C11.7129 8.71657 11.6734 8.84967 11.5947 8.94434C11.5161 9.03885 11.3956 9.08594 11.2344 9.08594C11.0734 9.08585 10.9536 9.03874 10.875 8.94434C10.7963 8.84967 10.7568 8.71657 10.7568 8.5459V7.99805C10.7568 7.81938 10.7963 7.68194 10.875 7.58594C10.9536 7.49012 11.0734 7.44248 11.2344 7.44238Z" fill="white"/>
</svg>
