<svg width="24" height="24" viewBox="0 0 24 24" fill="none" xmlns="http://www.w3.org/2000/svg">
<path d="M6 16C7.1 16 8 16.9 8 18C8 19.1 7.1 20 6 20C4.9 20 4 19.1 4 18C4 16.9 4.9 16 6 16ZM12.0186 19.9238H10.0186V17.9238H12.0186V19.9238ZM20 19.9238H13.0156V17.9238H20V19.9238ZM12.0186 16.001H10.0186V14.001H12.0186V16.001ZM20.0029 16.001H13.0186V14.001H20.0029V16.001ZM6 10C7.1 10 8 10.9 8 12C8 13.1 7.1 14 6 14C4.9 14 4 13.1 4 12C4 10.9 4.9 10 6 10ZM12.0186 12.0781H10.0186V10.0781H12.0186V12.0781ZM20.0029 12.0781H13.0186V10.0781H20.0029V12.0781ZM6 4C7.1 4 8 4.9 8 6C8 7.1 7.1 8 6 8C4.9 8 4 7.1 4 6C4 4.9 4.9 4 6 4ZM12 4C13.1 4 14 4.9 14 6C14 7.1 13.1 8 12 8C10.9 8 10 7.1 10 6C10 4.9 10.9 4 12 4ZM18 4C19.1 4 20 4.9 20 6C20 7.1 19.1 8 18 8C16.9 8 16 7.1 16 6C16 4.9 16.9 4 18 4Z" fill="white"/>
</svg>
